<svg xmlns="http://www.w3.org/2000/svg" xmlns:xlink="http://www.w3.org/1999/xlink" xmlns:inkscape="http://www.inkscape.org/namespaces/inkscape" version="1.1" width="469" height="682" viewBox="0 0 469 682">
<defs>
<clipPath id="clip_1">
<path transform="matrix(1,0,0,-1,-63,762)" d="M0 0H595.276V841.89H0Z"/>
</clipPath>
</defs>
<g>
<g>
<g clip-path="url(#clip_1)">
<path transform="matrix(1,0,0,1,-63,-79.890018)" d="M127.785 108.867H149.684C159.348 108.867 165.098 110.441 169.59 115.797 176.477 124.059 177.082 140.758 177.082 174.402V233.074C177.082 266.734 176.477 283.406 169.59 291.68 165.098 297.035 159.348 298.598 149.684 298.598H127.785ZM93.621 327.559H155.68C179.781 327.559 194.484 322.082 203.398 310.539 216.559 294.785 216.977 269.359 216.977 230.355V177.121C216.977 138.133 216.559 112.695 203.398 96.938 194.484 85.398 179.781 79.914 155.68 79.914H93.621C91.77 79.914 90.617 80.477 89.809 81.293 88.98 82.121 88.426 83.246 88.426 85.125V322.371C88.426 324.223 88.98 325.371 89.809 326.184 90.617 327.008 91.77 327.559 93.621 327.559" fill="#990000"/>
<path transform="matrix(1,0,0,1,-63,-79.890018)" d="M440.844 330.688C465.227 330.688 480.941 324.16 490.605 312.934 501.957 299.742 504.754 284.016 504.754 260.328V85.125C504.754 83.246 504.184 82.121 503.348 81.293 502.559 80.477 501.406 79.914 499.562 79.914H470.543C468.691 79.914 467.547 80.477 466.73 81.293 465.922 82.121 465.348 83.246 465.348 85.125V260.266C465.348 278.547 463.973 289.414 458.023 295.941 453.996 300.355 448.312 302.523 440.312 302.523 433.09 302.523 427.578 300.512 423.391 295.902 417.781 289.711 416.059 279.211 416.059 260.266V85.125C416.059 83.246 415.508 82.121 414.68 81.293 413.855 80.477 412.723 79.914 410.852 79.914H381.867C379.988 79.914 378.863 80.477 378.035 81.293 377.207 82.121 376.676 83.246 376.676 85.125V260.328C376.676 285.828 380.133 301.828 390.27 312.957 400.797 324.547 416.707 330.688 440.844 330.688" fill="#990000"/>
<path transform="matrix(1,0,0,1,-63,-79.890018)" d="M238.113 111.215H275.383V322.371C275.383 324.227 275.914 325.371 276.742 326.184 277.566 327.008 278.695 327.559 280.562 327.559H312.285C314.152 327.559 315.281 327.008 316.098 326.184 316.934 325.371 317.477 324.227 317.477 322.371V111.215H354.738C356.598 111.215 357.73 110.664 358.578 109.84 359.383 109.027 359.945 107.883 359.945 106.031V85.125C359.945 83.246 359.383 82.121 358.578 81.293 357.73 80.477 356.598 79.914 354.738 79.914H238.113C236.242 79.914 235.109 80.477 234.281 81.293 233.453 82.121 232.898 83.246 232.898 85.125V106.031C232.898 107.883 233.453 109.027 234.281 109.84 235.109 110.664 236.242 111.215 238.113 111.215" fill="#990000"/>
<path transform="matrix(1,0,0,1,-63,-79.890018)" d="M431.539 503.703 531.02 451.492 431.539 399.242C302.688 449.371 291.832 449.371 163.008 399.242L63.531 451.492 163.008 503.703C291.832 453.598 302.688 453.598 431.539 503.703" fill="#990000"/>
<path transform="matrix(1,0,0,1,-63,-79.890018)" d="M163.008 528.336 63.531 580.574 163.008 632.785C291.832 582.68 302.691 582.68 431.539 632.785L531.02 580.574 431.539 528.336C302.691 578.457 291.832 578.457 163.008 528.336" fill="#990000"/>
<path transform="matrix(1,0,0,1,-63,-79.890018)" d="M163.008 657.434 63.531 709.641 163.008 761.867C291.832 711.762 302.691 711.762 431.539 761.867L531.02 709.641 431.539 657.434C302.691 707.535 291.832 707.535 163.008 657.434" fill="#990000"/>
</g>
</g>
</g>
</svg>
